<svg width="1500" viewBox="0 0 204 62" xmlns="http://www.w3.org/2000/svg">
  <g fill="none" fill-rule="evenodd">
    <path d="M69.14 28.05c-.04.02-.06.04-.06.06 0 .02.02.04.06.06 1.08.46 1.915 1.13 2.505 2.01.59.88.885 1.93.885 3.15 0 1.76-.555 3.145-1.665 4.155C69.755 38.495 68.29 39 66.47 39h-7.05a.347.347 0 0 1-.255-.105.347.347 0 0 1-.105-.255V18.36c0-.1.035-.185.105-.255A.347.347 0 0 1 59.42 18h6.84c1.86 0 3.33.48 4.41 1.44s1.62 2.29 1.62 3.99c0 1.12-.27 2.07-.81 2.85-.54.78-1.32 1.37-2.34 1.77zm-8.37-8.64c-.08 0-.12.04-.12.12v7.86c0 .08.04.12.12.12h5.49c1.36 0 2.445-.365 3.255-1.095s1.215-1.695 1.215-2.895c0-1.24-.405-2.235-1.215-2.985S67.62 19.41 66.26 19.41h-5.49zm5.7 18.15c1.36 0 2.445-.395 3.255-1.185s1.215-1.835 1.215-3.135c0-1.34-.42-2.405-1.26-3.195-.84-.79-1.96-1.185-3.36-1.185h-5.55c-.08 0-.12.04-.12.12v8.46c0 .08.04.12.12.12h5.7zm16.56.3c.98-.02 1.82-.245 2.52-.675.7-.43 1.22-1.025 1.56-1.785.12-.2.28-.26.48-.18l.54.21c.24.1.31.26.21.48a5.324 5.324 0 0 1-2.07 2.43c-.94.6-2.06.9-3.36.9-1.38 0-2.545-.34-3.495-1.02-.95-.68-1.615-1.61-1.995-2.79-.28-.92-.42-2.26-.42-4.02 0-.98.015-1.72.045-2.22.03-.5.095-.96.195-1.38.32-1.26.975-2.27 1.965-3.03.99-.76 2.205-1.14 3.645-1.14 1.6 0 2.89.42 3.87 1.26.98.84 1.6 1.99 1.86 3.45.08.4.135.815.165 1.245.03.43.045 1.085.045 1.965 0 .26-.12.39-.36.39h-9.75c-.08 0-.12.04-.12.12 0 1.26.05 2.12.15 2.58.22.96.71 1.735 1.47 2.325.76.59 1.71.885 2.85.885zm-4.26-9.69c-.1.38-.17 1.17-.21 2.37 0 .08.04.12.12.12h8.37c.08 0 .12-.04.12-.12 0-1.02-.05-1.78-.15-2.28-.22-.96-.7-1.735-1.44-2.325-.74-.59-1.65-.885-2.73-.885s-1.98.285-2.7.855c-.72.57-1.18 1.325-1.38 2.265zm20.61-4.5c1.54 0 2.78.47 3.72 1.41.94.94 1.41 2.18 1.41 3.72v9.84c0 .1-.035.185-.105.255a.347.347 0 0 1-.255.105h-.87a.347.347 0 0 1-.255-.105.347.347 0 0 1-.105-.255V29.1c0-1.18-.36-2.145-1.08-2.895-.72-.75-1.65-1.125-2.79-1.125-1.22 0-2.2.365-2.94 1.095-.74.73-1.11 1.685-1.11 2.865v9.6c0 .1-.035.185-.105.255a.347.347 0 0 1-.255.105h-.87a.347.347 0 0 1-.255-.105.347.347 0 0 1-.105-.255v-14.4c0-.1.035-.185.105-.255a.347.347 0 0 1 .255-.105h.87c.1 0 .185.035.255.105.07.07.105.155.105.255v1.41c0 .06.015.095.045.105.03.01.055-.005.075-.045a4.304 4.304 0 0 1 1.755-1.515c.73-.35 1.565-.525 2.505-.525zm19.5.57c0-.1.035-.185.105-.255a.347.347 0 0 1 .255-.105h.87c.1 0 .185.035.255.105.07.07.105.155.105.255v14.43c0 2.26-.675 3.9-2.025 4.92-1.35 1.02-3.255 1.48-5.715 1.38-.24-.02-.36-.15-.36-.39l.03-.75c0-.24.12-.35.36-.33 2.12.06 3.67-.305 4.65-1.095.98-.79 1.47-2.045 1.47-3.765v-1.5c0-.06-.015-.095-.045-.105-.03-.01-.065.005-.105.045-.9 1.38-2.27 2.07-4.11 2.07-1.3 0-2.44-.355-3.42-1.065s-1.63-1.685-1.95-2.925c-.22-.82-.33-2.05-.33-3.69 0-1.76.12-3.05.36-3.87.32-1.18.95-2.135 1.89-2.865.94-.73 2.07-1.095 3.39-1.095 1.84 0 3.23.68 4.17 2.04.02.04.05.05.09.03.04-.02.06-.05.06-.09v-1.38zm-.15 10.35c.06-.3.1-.67.12-1.11.02-.44.03-1.12.03-2.04 0-.92-.01-1.6-.03-2.04-.02-.44-.06-.83-.12-1.17a3.792 3.792 0 0 0-1.275-2.28c-.69-.6-1.555-.9-2.595-.9-1.04 0-1.915.3-2.625.9-.71.6-1.195 1.36-1.455 2.28-.18.6-.27 1.66-.27 3.18 0 1.48.09 2.54.27 3.18.22.92.695 1.68 1.425 2.28.73.6 1.615.9 2.655.9 1.08 0 1.955-.3 2.625-.9.67-.6 1.085-1.36 1.245-2.28zm12.24 3.27c.98-.02 1.82-.245 2.52-.675.7-.43 1.22-1.025 1.56-1.785.12-.2.28-.26.48-.18l.54.21c.24.1.31.26.21.48a5.324 5.324 0 0 1-2.07 2.43c-.94.6-2.06.9-3.36.9-1.38 0-2.545-.34-3.495-1.02-.95-.68-1.615-1.61-1.995-2.79-.28-.92-.42-2.26-.42-4.02 0-.98.015-1.72.045-2.22.03-.5.095-.96.195-1.38.32-1.26.975-2.27 1.965-3.03.99-.76 2.205-1.14 3.645-1.14 1.6 0 2.89.42 3.87 1.26.98.84 1.6 1.99 1.86 3.45.08.4.135.815.165 1.245.03.43.045 1.085.045 1.965 0 .26-.12.39-.36.39h-9.75c-.08 0-.12.04-.12.12 0 1.26.05 2.12.15 2.58.22.96.71 1.735 1.47 2.325.76.59 1.71.885 2.85.885zm-4.26-9.69c-.1.38-.17 1.17-.21 2.37 0 .08.04.12.12.12h8.37c.08 0 .12-.04.12-.12 0-1.02-.05-1.78-.15-2.28-.22-.96-.7-1.735-1.44-2.325-.74-.59-1.65-.885-2.73-.885s-1.98.285-2.7.855c-.72.57-1.18 1.325-1.38 2.265zm20.34-4.41c.62 0 1.19.11 1.71.33.18.08.24.23.18.45l-.24.87c-.06.24-.21.31-.45.21-.44-.14-.92-.2-1.44-.18-1.12.02-2.045.445-2.775 1.275-.73.83-1.095 1.845-1.095 3.045v8.88c0 .1-.035.185-.105.255a.347.347 0 0 1-.255.105h-.87a.347.347 0 0 1-.255-.105.347.347 0 0 1-.105-.255v-14.4c0-.1.035-.185.105-.255a.347.347 0 0 1 .255-.105h.87c.1 0 .185.035.255.105.07.07.105.155.105.255v1.98c0 .06.015.095.045.105.03.01.055-.015.075-.075.42-.78.965-1.39 1.635-1.83.67-.44 1.455-.66 2.355-.66zm11.85 1.11c0 .1-.035.185-.105.255a.347.347 0 0 1-.255.105h-3.45c-.08 0-.12.04-.12.12v9.45c0 1.02.23 1.735.69 2.145.46.41 1.2.615 2.22.615h.63c.1 0 .185.035.255.105.07.07.105.155.105.255v.69c0 .24-.12.36-.36.36l-.84.03c-1.38 0-2.43-.27-3.15-.81-.72-.54-1.09-1.53-1.11-2.97v-9.87c0-.08-.04-.12-.12-.12h-1.74a.347.347 0 0 1-.255-.105.347.347 0 0 1-.105-.255v-.63c0-.1.035-.185.105-.255a.347.347 0 0 1 .255-.105h1.74c.08 0 .12-.04.12-.12V20.4c0-.1.035-.185.105-.255a.347.347 0 0 1 .255-.105h.84c.1 0 .185.035.255.105.07.07.105.155.105.255v3.36c0 .08.04.12.12.12h3.45c.1 0 .185.035.255.105.07.07.105.155.105.255v.63zM162.2 39a.347.347 0 0 1-.255-.105.347.347 0 0 1-.105-.255v-.87c0-.16.05-.31.15-.45l8.91-11.82c.04-.04.05-.075.03-.105a.101.101 0 0 0-.09-.045h-8.52a.347.347 0 0 1-.255-.105.347.347 0 0 1-.105-.255v-.75c0-.1.035-.185.105-.255a.347.347 0 0 1 .255-.105h10.2c.1 0 .185.035.255.105.07.07.105.155.105.255v.87c0 .16-.05.31-.15.45l-9 11.82c-.04.04-.05.075-.03.105.02.03.05.045.09.045h8.7c.1 0 .185.035.255.105.07.07.105.155.105.255v.75c0 .1-.035.185-.105.255a.347.347 0 0 1-.255.105H162.2z" fill="#00B66A"/>
    <path d="M44.667 22.8c-1.034 0-1.909-.142-2.625-.425-.717-.283-1.659-.742-2.825-1.375a16.84 16.84 0 0 0-1.925-.875 5.49 5.49 0 0 0-1.925-.325c-1.7 0-3.034.7-4 2.1-.167.333-.384.383-.65.15l-.45-.3c-.267-.2-.334-.417-.2-.65a5.596 5.596 0 0 1 2.125-2.275c.916-.55 1.958-.825 3.125-.825.866 0 1.616.117 2.25.35.633.233 1.35.567 2.15 1 .166.1.55.308 1.15.625.6.317 1.216.567 1.85.75a6.978 6.978 0 0 0 1.95.275c.733 0 1.35-.167 1.85-.5.5-.333 1.033-.85 1.6-1.55.2-.233.433-.267.7-.1l.55.35c.266.2.316.433.15.7-.6.933-1.284 1.65-2.05 2.15-.767.5-1.7.75-2.8.75zM44.667 30.8c-1.034 0-1.909-.142-2.625-.425-.717-.283-1.659-.742-2.825-1.375a16.84 16.84 0 0 0-1.925-.875 5.49 5.49 0 0 0-1.925-.325c-1.7 0-3.034.7-4 2.1-.167.333-.384.383-.65.15l-.45-.3c-.267-.2-.334-.417-.2-.65a5.596 5.596 0 0 1 2.125-2.275c.916-.55 1.958-.825 3.125-.825.866 0 1.616.117 2.25.35.633.233 1.35.567 2.15 1 .166.1.55.308 1.15.625.6.317 1.216.567 1.85.75a6.978 6.978 0 0 0 1.95.275c.733 0 1.35-.167 1.85-.5.5-.333 1.033-.85 1.6-1.55.2-.233.433-.267.7-.1l.55.35c.266.2.316.433.15.7-.6.933-1.284 1.65-2.05 2.15-.767.5-1.7.75-2.8.75zM44.667 38.8c-1.034 0-1.909-.142-2.625-.425-.717-.283-1.659-.742-2.825-1.375a16.84 16.84 0 0 0-1.925-.875 5.49 5.49 0 0 0-1.925-.325c-1.7 0-3.034.7-4 2.1-.167.333-.384.383-.65.15l-.45-.3c-.267-.2-.334-.417-.2-.65a5.596 5.596 0 0 1 2.125-2.275c.916-.55 1.958-.825 3.125-.825.866 0 1.616.117 2.25.35.633.233 1.35.567 2.15 1 .166.1.55.308 1.15.625.6.317 1.216.567 1.85.75a6.978 6.978 0 0 0 1.95.275c.733 0 1.35-.167 1.85-.5.5-.333 1.033-.85 1.6-1.55.2-.233.433-.267.7-.1l.55.35c.266.2.316.433.15.7-.6.933-1.284 1.65-2.05 2.15-.767.5-1.7.75-2.8.75z" fill="#555"/>
  </g>
</svg>
